<svg xmlns="http://www.w3.org/2000/svg" xml:space="preserve" width="655.359" height="655.359" style="shape-rendering:geometricPrecision;text-rendering:geometricPrecision;image-rendering:optimizeQuality;fill-rule:evenodd;clip-rule:evenodd" viewBox="0 0 6.827 6.827"><defs><style>.fil1{fill:#fffffe;fill-rule:nonzero}</style></defs><path style="fill:#424242" d="M0 0h6.827v6.827H0z"/><g id="Layer_x0020_1"><path class="fil1" d="M1.933 2.932h2.961c.093 0 .163.04.216.102a.555.555 0 0 1 .097.184l.754 2.208a.222.222 0 0 1 .012.072.247.247 0 0 1-.071.169.36.36 0 0 1-.254.11h-4.47a.36.36 0 0 1-.254-.11.247.247 0 0 1-.07-.17c0-.023.003-.047.012-.071l.754-2.208a.556.556 0 0 1 .097-.184.273.273 0 0 1 .216-.102zm1.264 2.229h.26l-.352-.894.352-.718h-.253l-.332.702v-.702h-.253V5.16h.253v-.496l.078-.147.247.643zm.739-.668h.115v.297a.22.22 0 0 1-.016.092.103.103 0 0 1-.045.05.143.143 0 0 1-.07.014.143.143 0 0 1-.07-.015.103.103 0 0 1-.045-.05.22.22 0 0 1-.016-.091v-.87c0-.058.012-.099.035-.123a.123.123 0 0 1 .096-.037c.04 0 .072.012.096.037.023.024.035.065.035.122v.173h.24v-.157a.513.513 0 0 0-.043-.22.302.302 0 0 0-.127-.137.425.425 0 0 0-.208-.048.425.425 0 0 0-.209.048.302.302 0 0 0-.126.138.513.513 0 0 0-.043.22v.838c0 .086.014.159.043.22.028.06.07.106.126.137a.425.425 0 0 0 .209.048.425.425 0 0 0 .208-.048.303.303 0 0 0 .127-.138.511.511 0 0 0 .043-.22v-.51h-.355v.23z"/><path d="M4.067 2.558a.922.922 0 0 1-1.308 0 .922.922 0 0 1 0-1.308.922.922 0 0 1 1.308 0 .922.922 0 0 1 0 1.308zm-.654-.124a.528.528 0 0 0 .53-.53.528.528 0 0 0-.53-.53.528.528 0 0 0-.53.53.528.528 0 0 0 .53.53z" style="fill:#fffffe"/><path class="fil1" d="M4.23 3.137H2.596a.102.102 0 0 1-.102-.102v-.377c0-.057.046-.103.102-.103H4.23c.057 0 .103.046.103.103v.377a.102.102 0 0 1-.103.102z"/></g></svg>